<svg version="1" xmlns="http://www.w3.org/2000/svg" width="933.333" height="933.333" viewBox="0 0 700.000000 700.000000"><path d="M323.5 1.1c-70.4 5.6-137.7 32.1-192 75.6-22 17.5-49.1 46-65.1 68.3C19.5 210.1-4.1 290.8.8 369.3c3.1 50.4 14.5 93.2 36.2 136.8 50 100.1 145.3 170.7 255 188.8 22.7 3.8 32.2 4.5 58 4.5 25.8 0 35.3-.7 58-4.5 98.3-16.2 185.5-74.7 239.2-160.4 13.6-21.6 26.6-49.6 34.8-74.5 37.2-112.9 15.3-235.6-58.7-328.5-18.1-22.7-45.9-49.1-70-66.3C487.2 18 403.8-5.3 323.5 1.1zm-30.1 276.1c27.5 73.3 50.4 134.3 51 135.5.9 1.9 8.2-16.7 50.9-130 27.4-72.7 50.5-133.7 51.2-135.5l1.4-3.2H528v399h-53V368.7l-.1-174.2-50.8 135.1c-27.9 74.3-51.1 135.6-51.5 136.3-1.1 1.7-53 1.6-54.3-.2-.5-.6-23.6-61.7-51.4-135.6l-50.4-134.3-.3 173.6L216 543h-53V144h80.5l49.9 133.2z"/></svg>